<svg width="76" height="37" fill="none" xmlns="http://www.w3.org/2000/svg"><path d="M3.64 8.198a.435.435 0 01.261-.347c.174-.077.347-.116.52-.116.136 0 .251.03.348.087.096.058.135.154.115.29-.019.096-.048.289-.086.578-.039.289-.077.607-.116.954.27-.52.569-.993.897-1.417.347-.424.742-.636 1.186-.636.212 0 .404.048.578.144.27.135.453.338.55.608.115.25.192.53.23.838.059.309.107.617.146.926.038.309.134.569.289.78.25.367.607.55 1.07.55a2.68 2.68 0 001.099-.26 7.87 7.87 0 001.186-.636c.385-.25.742-.502 1.07-.752.328-.25.588-.444.78-.579a3.79 3.79 0 01.406-.231c.154-.096.289-.164.405-.202.135-.058.222-.068.26-.03.058.02.02.097-.116.232-.25.27-.588.607-1.012 1.012-.424.386-.897.762-1.417 1.128a10.91 10.91 0 01-1.562.955c-.54.25-1.06.376-1.562.376-.675 0-1.166-.203-1.475-.608-.308-.424-.52-.935-.636-1.533a3.724 3.724 0 01-.087-.491 2.034 2.034 0 00-.116-.492c-.077-.212-.115-.366-.115-.463.019-.096.01-.144-.03-.144-.019 0-.096.038-.23.115-.232.135-.435.347-.608.637a6.212 6.212 0 00-.463.954c-.135.328-.27.665-.405 1.012-.115.328-.26.598-.434.81-.096.135-.25.222-.462.26a.933.933 0 01-.521-.086c-.193-.116-.299-.357-.318-.723-.039-.386-.03-.8.029-1.244.038-.463.096-.906.173-1.33.097-.425.155-.733.174-.926zm10.934.318a.423.423 0 01.202-.144c.097-.039.193-.068.29-.087.154-.154.337-.26.549-.318.212-.077.405-.097.578-.058.27.038.463.183.579.434.135.231.222.51.26.838.29.058.598.078.926.058a8.528 8.528 0 001.012-.173c.347-.097.675-.193.983-.29.328-.115.608-.212.84-.289.366-.115.558-.115.578 0 .019.097-.145.222-.492.376-.309.135-.636.27-.983.405-.348.116-.685.212-1.013.29a8.758 8.758 0 01-.983.173 2.33 2.33 0 01-.839-.087c0 .347-.038.675-.116.984a2.16 2.16 0 01-.318.81 1.94 1.94 0 01-.607.578c-.25.135-.569.202-.955.202-.27 0-.482-.067-.636-.202a1.089 1.089 0 01-.463-.723 2.81 2.81 0 010-.983c.039-.348.126-.685.26-1.013.116-.328.232-.588.348-.78zm.694 2.43c.038.116.077.24.116.376.057.135.106.212.144.231.058 0 .097-.067.116-.202.02-.155.038-.26.058-.319.058-.23.087-.472.087-.723 0-.25-.02-.5-.058-.752a2.767 2.767 0 01-.434-.144c-.154.54-.164 1.05-.03 1.533zm12.991-9.487c.058-.096.184-.174.377-.231.212-.058.395-.087.55-.087.25 0 .346.038.288.116-.289.559-.55 1.185-.78 1.88a23.64 23.64 0 00-.608 2.082 26.992 26.992 0 00-.434 2.17 27.62 27.62 0 00-.202 2.024c.385-.424.82-.82 1.301-1.186.502-.386.993-.578 1.475-.578.27 0 .511.067.723.202.27.154.453.357.55.607.096.251.135.54.116.868.25-.154.472-.27.665-.347a7.36 7.36 0 00.434-.231c.058-.039.164-.068.318-.087.154-.039.299-.058.434-.058a.702.702 0 01.289 0c.058.02.02.077-.116.174-.366.212-.733.433-1.099.665a8.855 8.855 0 00-1.012.723 6.929 6.929 0 01-.318.954 7.54 7.54 0 01-.405.897c-.135.27-.27.52-.405.752-.135.231-.26.424-.376.578a3.394 3.394 0 01-.376.376 5.544 5.544 0 01-.607.463c-.213.154-.444.29-.695.405a1.487 1.487 0 01-.665.174c-.308 0-.53-.135-.665-.405s-.125-.57.029-.897c.154-.347.395-.704.723-1.07a11.11 11.11 0 011.186-1.128 32.37 32.37 0 011.388-1.041 3.86 3.86 0 00.058-.637c0-.212-.039-.395-.116-.55-.135-.23-.308-.346-.52-.346-.174 0-.367.077-.579.231a4.713 4.713 0 00-.636.492 8.24 8.24 0 00-.55.607c-.173.193-.318.347-.434.463-.096.116-.26.212-.491.29-.212.057-.396.057-.55 0-.25-.097-.395-.367-.434-.81-.038-.463-.01-1.013.087-1.65.116-.655.27-1.349.463-2.082.212-.732.424-1.427.636-2.082.212-.656.405-1.225.579-1.707.192-.501.327-.829.404-.983zm1.1 11.164c.077-.115.163-.27.26-.462.096-.213.193-.434.29-.666a9.528 9.528 0 00-.435.463 8.04 8.04 0 00-.376.463c-.328.405-.54.723-.636.954-.077.232-.077.347 0 .347s.193-.086.347-.26c.154-.173.337-.453.55-.839zM33.879.765a.614.614 0 01.29-.376.912.912 0 01.491-.145c.155 0 .28.039.376.116.097.058.126.164.087.318a94.348 94.348 0 00-.55 3.991 67.122 67.122 0 00-.346 3.963c-.02.328-.049.733-.087 1.215-.039.463-.077.954-.116 1.475-.02.501-.02 1.002 0 1.504.02.501.087.945.203 1.33.115.386.23.579.347.579.115 0 .308-.212.578-.637.116-.173.299-.491.55-.954.25-.463.53-.954.838-1.475.328-.54.666-1.06 1.013-1.562.366-.52.713-.926 1.04-1.215a2.09 2.09 0 01.406-.26c.154-.077.289-.125.405-.145.135-.038.221-.038.26 0 .039.039-.01.135-.145.29a9.487 9.487 0 00-1.59 2.227 55.561 55.561 0 00-1.215 2.4 16.504 16.504 0 01-1.07 1.91c-.347.52-.743.78-1.186.78-.212 0-.405-.048-.579-.145-.27-.134-.472-.366-.607-.694a6.549 6.549 0 01-.26-1.099 8.388 8.388 0 01-.087-1.186v-.954c-.077-1.89-.01-3.77.202-5.64.212-1.87.463-3.74.752-5.611zm3.97 9.66c.057-.27.182-.578.375-.925.193-.347.424-.675.694-.984.27-.308.57-.569.897-.78.328-.213.646-.319.955-.319.192 0 .385.048.578.145.193.096.366.27.52.52.136.193.097.357-.115.492a1.043 1.043 0 01-.608.203.498.498 0 01-.405-.174c-.077-.116-.173-.174-.289-.174-.115 0-.231.058-.347.174a3.85 3.85 0 00-.347.405c-.096.135-.193.28-.29.434l-.173.347c-.212.501-.28.752-.202.752.077 0 .24-.097.492-.29.135-.115.26-.25.376-.404.135-.174.26-.328.376-.463.135-.154.28-.28.434-.376a.89.89 0 01.549-.174c.116 0 .222.02.318.058.116.02.193.087.231.203.116.27.184.54.203.81.039.25.164.482.376.694.27.27.627.405 1.07.405.366 0 .742-.077 1.128-.232.405-.173.79-.376 1.157-.607.386-.232.733-.463 1.041-.694.328-.251.588-.453.781-.608.116-.096.241-.164.376-.202.154-.058.28-.077.376-.058.097.02.145.067.145.145 0 .057-.077.154-.232.289l-1.07.868a13.12 13.12 0 01-1.301.925 7.91 7.91 0 01-1.389.723c-.482.193-.964.29-1.446.29-1.118 0-1.831-.53-2.14-1.591l-.405.404a2.874 2.874 0 01-.29.26 8.43 8.43 0 01-.664.492 2.053 2.053 0 01-.752.26c-.444.04-.743-.057-.897-.288-.154-.232-.183-.55-.087-.955zM55.346 1.46c.057-.096.183-.174.376-.231.212-.058.395-.087.55-.087.25 0 .346.038.288.116-.289.559-.55 1.185-.78 1.88a23.674 23.674 0 00-.608 2.082 26.992 26.992 0 00-.434 2.17 27.675 27.675 0 00-.202 2.024c.386-.424.82-.82 1.301-1.186.502-.386.993-.578 1.475-.578.27 0 .511.067.723.202.27.154.454.357.55.607.096.251.135.54.116.868.25-.154.472-.27.665-.347a7.36 7.36 0 00.434-.231c.058-.039.164-.068.318-.087.154-.039.299-.058.434-.058a.702.702 0 01.29 0c.057.02.018.077-.117.174-.366.212-.732.433-1.099.665a8.864 8.864 0 00-1.012.723 6.915 6.915 0 01-.318.954 7.49 7.49 0 01-.405.897c-.135.27-.27.52-.405.752-.135.231-.26.424-.376.578a3.385 3.385 0 01-.376.376 5.534 5.534 0 01-.607.463 4.09 4.09 0 01-.694.405 1.488 1.488 0 01-.666.174c-.308 0-.53-.135-.665-.405s-.125-.57.029-.897c.154-.347.395-.704.723-1.07.347-.386.742-.762 1.186-1.128a33.01 33.01 0 011.388-1.041 3.86 3.86 0 00.058-.637c0-.212-.039-.395-.116-.55-.135-.23-.308-.346-.52-.346-.174 0-.367.077-.579.231a4.713 4.713 0 00-.636.492 8.216 8.216 0 00-.55.607c-.173.193-.318.347-.433.463-.097.116-.26.212-.492.29-.212.057-.395.057-.55 0-.25-.097-.395-.367-.433-.81-.04-.463-.01-1.013.086-1.65a25.9 25.9 0 01.463-2.082c.212-.732.424-1.427.636-2.082.212-.656.405-1.225.579-1.707.193-.501.328-.829.405-.983zm1.099 11.164a4.37 4.37 0 00.26-.462c.096-.213.193-.434.29-.666a9.476 9.476 0 00-.434.463c-.136.154-.26.309-.377.463-.327.405-.54.723-.636.954-.077.232-.077.347 0 .347s.193-.086.347-.26c.154-.173.338-.453.55-.839zM60.966.765a.613.613 0 01.29-.376.913.913 0 01.492-.145c.154 0 .28.039.376.116.096.058.125.164.086.318a94.512 94.512 0 00-.55 3.991 67.207 67.207 0 00-.346 3.963c-.02.328-.049.733-.087 1.215-.039.463-.077.954-.116 1.475-.02.501-.02 1.002 0 1.504.02.501.087.945.203 1.33.115.386.231.579.347.579.115 0 .308-.212.578-.637.116-.173.3-.491.55-.954.25-.463.53-.954.838-1.475.328-.54.666-1.06 1.013-1.562.366-.52.713-.926 1.041-1.215.116-.096.25-.183.405-.26.154-.077.29-.125.405-.145.135-.038.222-.038.26 0 .039.039-.01.135-.144.29a9.484 9.484 0 00-1.591 2.227 55.561 55.561 0 00-1.215 2.4 16.49 16.49 0 01-1.07 1.91c-.347.52-.742.78-1.186.78a1.17 1.17 0 01-.578-.145c-.27-.134-.473-.366-.608-.694a6.53 6.53 0 01-.26-1.099 8.373 8.373 0 01-.087-1.186v-.954c-.077-1.89-.01-3.77.203-5.64.212-1.87.462-3.74.752-5.611zm3.97 9.66c.057-.27.182-.578.375-.925.193-.347.425-.675.694-.984.27-.308.57-.569.897-.78.328-.213.646-.319.955-.319.192 0 .385.048.578.145.193.096.366.27.52.52.136.193.097.357-.115.492a1.043 1.043 0 01-.607.203.498.498 0 01-.405-.174c-.078-.116-.174-.174-.29-.174-.115 0-.23.058-.347.174a3.85 3.85 0 00-.347.405 9.34 9.34 0 00-.289.434l-.174.347c-.212.501-.28.752-.202.752.077 0 .241-.097.492-.29.135-.115.26-.25.376-.404.135-.174.26-.328.376-.463.135-.154.28-.28.434-.376a.89.89 0 01.55-.174.85.85 0 01.317.058.28.28 0 01.232.203c.115.27.183.54.202.81.039.25.164.482.376.694.27.27.627.405 1.07.405.367 0 .743-.077 1.128-.232.405-.173.79-.376 1.157-.607.386-.232.733-.463 1.041-.694.328-.251.588-.453.781-.608.116-.096.241-.164.376-.202.155-.058.28-.077.376-.058.097.02.145.067.145.145 0 .057-.077.154-.231.289l-1.07.868a13.11 13.11 0 01-1.302.925c-.444.29-.906.53-1.388.723-.483.193-.965.29-1.447.29-1.118 0-1.831-.53-2.14-1.591l-.405.404a2.886 2.886 0 01-.289.26 8.432 8.432 0 01-.665.492 2.052 2.052 0 01-.752.26c-.444.04-.743-.057-.897-.288-.154-.232-.183-.55-.087-.955zM.776 32.76c.097-.983.396-1.89.897-2.718.482-.83 1.08-1.61 1.793-2.343a8.757 8.757 0 01-.115-1.736c0-.578.096-1.147.289-1.706.038-.116.154-.203.347-.26.212-.077.395-.116.55-.116.25 0 .356.058.318.174a5.97 5.97 0 00-.26 1.272 7.335 7.335 0 000 1.302c.366-.328.732-.617 1.098-.868.367-.25.743-.482 1.128-.694.077-.039.193-.077.347-.116.155-.058.29-.096.405-.116.135-.038.232-.048.29-.029.057.02.019.078-.116.174-.501.386-1.012.79-1.533 1.215a20.33 20.33 0 00-1.533 1.388c.096.578.202 1.167.318 1.764.135.579.241 1.167.318 1.765.077.578.116 1.157.116 1.735 0 .579-.087 1.147-.26 1.707a2.347 2.347 0 01-.955 1.301c-.443.328-.973.415-1.59.26a2.005 2.005 0 01-.897-.52 2.402 2.402 0 01-.579-.81 3.456 3.456 0 01-.318-.983c-.058-.367-.077-.714-.058-1.042zm2.199 2.488c.192.135.356.202.491.202.193 0 .318-.115.376-.347a4.93 4.93 0 00.203-.81 6.636 6.636 0 00.087-1.85 29.452 29.452 0 00-.232-1.88c-.038-.29-.087-.58-.144-.869-.04-.289-.087-.588-.145-.896-.328.443-.617.906-.868 1.388a7.13 7.13 0 00-.578 1.504c-.058.27-.097.579-.116.926a3.56 3.56 0 00.029 1.012c.039.328.135.636.29.925.134.29.337.521.607.695zm.723-13.652c.077-.366.202-.617.376-.752.173-.135.453-.203.838-.203.116 0 .203.02.26.058.059.02.059.068 0 .145-.115.116-.192.299-.23.55-.02.115-.136.212-.348.289a1.915 1.915 0 01-.55.087c-.25 0-.366-.058-.346-.174zm3.986 2.314c.058-.116.183-.203.376-.26.193-.078.376-.116.55-.116.25 0 .347.067.29.202l-.261.637a31.44 31.44 0 00-.232.723 8.886 8.886 0 00-.144.694c-.02.231-.01.453.029.665.058.347.173.52.347.52.135 0 .28-.067.434-.202.154-.154.308-.328.462-.52.174-.193.328-.386.463-.579.154-.212.28-.366.376-.463.29-.327.646-.424 1.07-.289.097.039.145.077.145.116 0 .713.125 1.215.376 1.504.27.27.598.405.983.405a2.9 2.9 0 001.07-.232 10.41 10.41 0 001.157-.52c.386-.212.743-.434 1.07-.665.348-.232.618-.415.81-.55.078-.058.203-.116.376-.174a3.02 3.02 0 01.492-.173c.154-.058.26-.077.318-.058.077 0 .048.058-.087.174-.366.308-.761.626-1.185.954-.405.328-.84.636-1.302.926-.443.27-.906.5-1.388.694-.482.173-.984.28-1.504.318a3.586 3.586 0 01-1.013-.029 1.702 1.702 0 01-.867-.52 1.439 1.439 0 01-.174-.26l-.173-.464a6.22 6.22 0 01-.579.665 4.16 4.16 0 01-.636.521 2.582 2.582 0 01-.723.29c-.25.057-.511.048-.781-.03-.366-.096-.598-.308-.694-.636a2.578 2.578 0 01-.058-1.099c.038-.405.125-.81.26-1.215s.25-.723.347-.954zm10.487-.723c.443-.27.877-.405 1.301-.405a2 2 0 011.215.405c.366.25.627.617.78 1.099a77.24 77.24 0 011.302-2.488 92.26 92.26 0 011.244-2.256c-1.099.039-2.198.087-3.297.145-1.08.058-2.16.096-3.24.116-.212 0-.327-.039-.346-.116-.02-.077.01-.154.086-.231.077-.097.183-.183.318-.26.155-.097.29-.145.405-.145 1.08-.02 2.16-.048 3.24-.087 1.08-.058 2.169-.106 3.268-.145l.636-1.128c.174-.327.3-.568.376-.723.039-.096.174-.173.405-.231a1.96 1.96 0 01.608-.116c.154 0 .221.039.202.116-.02.096-.058.318-.116.665-.038.347-.106.8-.202 1.36a37.69 37.69 0 012.95 0c.984.019 1.957.077 2.921.173.212.02.328.077.347.174.02.077-.01.163-.086.26a1.346 1.346 0 01-.347.231c-.135.058-.26.077-.376.058a32.342 32.342 0 00-2.748-.173 32.612 32.612 0 00-2.748 0 90.7 90.7 0 00-.405 2.545c-.135.906-.25 1.812-.347 2.719-.077.906-.144 1.774-.202 2.603a20.012 20.012 0 000 2.169c.038.617.115 1.09.231 1.417.116.328.29.444.52.347.059-.02.107.01.145.087a.41.41 0 01.058.231.518.518 0 01-.087.26.39.39 0 01-.26.145c-.463.077-.829-.057-1.099-.405-.27-.366-.463-.858-.578-1.475a14.82 14.82 0 01-.145-2.198c.02-.848.058-1.716.116-2.603.077-.887.173-1.764.289-2.632.116-.887.222-1.677.318-2.372l-1.504 2.835c-.482.925-.954 1.87-1.417 2.834-.097.212-.203.434-.318.666a11.08 11.08 0 00-.319.694c.232.27.396.559.492.867.116.29.126.646.03 1.07-.02.136-.097.328-.232.579a5.155 5.155 0 01-.52.723 3.328 3.328 0 01-.666.608c-.232.173-.463.26-.694.26a.933.933 0 01-.405-.116c-.29-.173-.357-.607-.203-1.301.155-.695.434-1.533.84-2.517l-.348-.347c-.25-.27-.56-.569-.925-.896a6.153 6.153 0 01-.897-1.042c-.232-.347-.338-.694-.318-1.04.019-.367.27-.705.752-1.013zm2.198 3.297l.463-.983c.173-.328.337-.656.491-.984a.987.987 0 01-.405.174 2.073 2.073 0 01-.433.058c-.135 0-.222-.03-.26-.087a.734.734 0 00-.406-.637 1.244 1.244 0 00-.694-.23c-.308 0-.492.086-.55.26-.057.192-.028.404.087.636.135.231.309.462.521.694.212.231.424.443.636.636.232.193.415.347.55.463zm.29 2.372v-.058c-.059.154-.117.318-.174.491a3.662 3.662 0 00-.145.492c-.135.502-.193.752-.174.752.02 0 .058-.067.116-.202a6.01 6.01 0 00.174-.463c.058-.193.106-.386.144-.579a2.44 2.44 0 00.058-.433zm13.033-4.165c.25-.232.53-.434.839-.608a1.716 1.716 0 011.012-.202c.29.039.501.154.636.347.135.193.126.424-.029.694-.057.097-.192.174-.404.232a1.831 1.831 0 01-.521.086c-.231 0-.337-.038-.318-.115.077-.135.115-.241.115-.319.02-.077-.048-.134-.202-.173-.038-.02-.096.02-.173.116a1.888 1.888 0 00-.232.289 2.63 2.63 0 01-.202.29.634.634 0 00-.087.173 10.37 10.37 0 00-.29.636 1.293 1.293 0 00-.057.665c.058.444.308.665.752.665a3.184 3.184 0 001.157-.289 6.79 6.79 0 001.157-.636c.385-.25.742-.511 1.07-.781.347-.29.665-.53.954-.723a1.76 1.76 0 01.318-.145 2.54 2.54 0 01.434-.173.877.877 0 01.318-.087c.078-.02.078 0 0 .058a30.237 30.237 0 01-2.111 1.706 9.243 9.243 0 01-2.4 1.273 9.01 9.01 0 01-1.07.318c-.406.077-.772.068-1.1-.029-.405-.096-.636-.29-.694-.578-.077-.29-.058-.608.058-.955s.28-.675.492-.983c.212-.328.404-.579.578-.752zm5.938-.203c.077-.115.25-.212.52-.289a1.15 1.15 0 01.492-.29.987.987 0 01.578 0 .988.988 0 01.579.464c.135.231.222.5.26.81.27.038.55.048.839.028.308-.038.607-.086.896-.144.309-.077.608-.164.897-.26a31 31 0 01.81-.26.504.504 0 01.26-.145c.27-.116.53-.174.781-.174a.96.96 0 01.608.203c.173.115.298.327.376.636.096.385.096.81 0 1.272-.078.463-.251.84-.521 1.128-.135.155-.318.29-.55.405a1.793 1.793 0 01-.694.145c-.173 0-.337-.029-.491-.087a.995.995 0 01-.348-.347c-.154-.27-.221-.607-.202-1.012.02-.424.097-.81.232-1.157-.425.135-.888.26-1.389.376a7.97 7.97 0 01-1.475.202c0 .29-.038.579-.116.868-.057.29-.163.55-.318.78a1.748 1.748 0 01-.55.58c-.23.134-.52.202-.867.202s-.636-.125-.868-.376a1.435 1.435 0 01-.376-.81 2.81 2.81 0 010-.983c.058-.328.145-.646.26-.955.116-.308.242-.578.377-.81zm.723 2.806c.096.173.164.26.202.26.077 0 .126-.096.145-.29.038-.211.067-.394.087-.549a2.741 2.741 0 00-.03-.896l-.23-.116a1.871 1.871 0 00-.203-.116 2.55 2.55 0 00-.145.868c0 .29.058.569.174.839zm5.64-.752c0 .096.01.193.029.29.038.076.077.163.115.26.097-.213.155-.434.174-.666a2.64 2.64 0 00.029-.665c0-.25-.039-.463-.116-.636a2.646 2.646 0 00-.202.723c-.039.25-.049.482-.03.694zm3.482-.145c.02-.193.038-.617.058-1.272.038-.675.077-1.418.116-2.227.057-.83.115-1.65.173-2.459.058-.81.135-1.446.231-1.909.02-.116.126-.202.319-.26a1.71 1.71 0 01.578-.116c.25 0 .357.058.318.174a15.97 15.97 0 00-.231 1.822 98.188 98.188 0 00-.145 2.111c-.02.675-.038 1.263-.058 1.764v.81l.376-.376c.097-.115.164-.192.203-.231.193-.231.405-.492.636-.78.232-.29.473-.56.723-.81.27-.27.55-.492.839-.666a2 2 0 01.954-.318c.039 0 .02.096-.057.29a1.13 1.13 0 01-.348.52 1.66 1.66 0 00-.26.26l-.26.26a16.365 16.365 0 00-1.099 1.215c-.328.366-.636.742-.926 1.128-.27.386-.569.752-.896 1.1a.752.752 0 00-.03.23 3.45 3.45 0 01.521-.086c.926-.25 1.822-.53 2.69-.839a36.612 36.612 0 002.603-1.041c.097-.039.222-.077.376-.116.154-.039.29-.058.405-.058.116 0 .183.03.203.087.019.039-.058.106-.232.202a27.316 27.316 0 01-3.24 1.476 25.203 25.203 0 01-3.383.983 15.17 15.17 0 00-.058 1.33c.02.425.058.84.116 1.244.019.135-.087.25-.318.347a2.025 2.025 0 01-.637.116c-.192 0-.289-.039-.289-.116a10.265 10.265 0 01-.087-1.33c-.019-.444-.01-.897.03-1.36h-.203a.367.367 0 01-.174-.087c-.058-.077-.038-.202.058-.376.096-.192.231-.404.405-.636zm7.236-2.14c.019-.116.125-.212.318-.29a1.71 1.71 0 01.578-.115c.25 0 .367.068.347.203l-.115.752a33.7 33.7 0 00-.116.723c0 .077-.01.212-.03.404a6.55 6.55 0 00-.028.608c0 .193.02.376.058.55.058.173.144.289.26.346.116.058.26.049.434-.029.193-.077.386-.183.578-.318.212-.135.405-.27.579-.404.173-.155.299-.27.376-.348.27-.231.53-.462.78-.694.27-.231.521-.424.753-.578.077-.058.183-.116.318-.174.154-.058.299-.106.434-.144.135-.039.222-.049.26-.03.058 0 .029.058-.087.174-.328.29-.684.627-1.07 1.012-.366.386-.761.753-1.186 1.1a7.131 7.131 0 01-1.301.838 2.742 2.742 0 01-1.417.26c-.405-.038-.675-.211-.81-.52a2.649 2.649 0 01-.203-1.07c0-.424.039-.839.116-1.244.077-.424.135-.761.174-1.012zm0-2.488l.115-.346a1.22 1.22 0 01.232-.319c.057-.096.163-.164.318-.202.154-.039.308-.058.462-.058.155 0 .28.029.377.087.096.038.096.125 0 .26-.097.096-.184.25-.26.463-.04.135-.155.24-.348.318a1.639 1.639 0 01-.52.087c-.309 0-.434-.097-.377-.29zm4.47 4.281c.097-.25.232-.501.406-.752a3.05 3.05 0 01.55-.665c.211-.212.443-.376.693-.492.27-.135.55-.202.84-.202.25 0 .423.077.52.231.096.135.135.28.115.434a1.14 1.14 0 01-.173.463 2.131 2.131 0 01-.29.434 1.386 1.386 0 01-.317.289 2.613 2.613 0 01-.608.318 1.286 1.286 0 01-.607.029c-.097.25-.135.501-.116.752.02.231.174.386.463.463.231.077.472.067.723-.03.27-.115.501-.221.694-.317a16.16 16.16 0 001.62-.926 27.89 27.89 0 001.533-1.099c.077-.058.193-.116.347-.174a3.21 3.21 0 01.405-.173c.135-.039.231-.048.289-.029.058.02.029.087-.087.202a21.807 21.807 0 01-2.487 2.025 9.03 9.03 0 01-1.417.752 5.119 5.119 0 01-1.504.405c-.695.077-1.206-.048-1.533-.376-.347-.328-.367-.848-.058-1.562zm1.823-1.012a.444.444 0 00.058-.174c0-.038.01-.077.029-.115a2.085 2.085 0 00-.26.318l-.174.289c.135.096.212.096.231 0 .039-.116.077-.222.116-.318z" fill="#F5F2E6"/></svg>