<svg width="229" height="54" fill="none" xmlns="http://www.w3.org/2000/svg"><g clip-path="url(#clip0_0_1)" fill-rule="evenodd" clip-rule="evenodd"><path d="M89.131 27.848V53.84H0V.159h63.965a7.141 7.141 0 00.775 5.157 7.1 7.1 0 00.752 1.097c.155.181.322.358.496.528a7.102 7.102 0 00-.84 3.052 7.175 7.175 0 00.55 3.113 7.077 7.077 0 001.833 2.56 6.877 6.877 0 002.74 1.498 6.54 6.54 0 00.104 1.766 7.141 7.141 0 002.91 4.557 6.943 6.943 0 005.228 1.155l.097.208c.11.272.239.535.387.787a7.054 7.054 0 004.267 3.316 6.977 6.977 0 005.329-.732c.15-.133.344-.255.538-.373z" fill="#FFCB00"/><path d="M22.821 46.225h3.143v-7.08c0-1.227.17-3.686 2.736-3.686 1.213 0 2.64.677 2.64 3.686v7.08h3.16v-7.788c0-3.76-2.096-5.987-5.134-5.987a4.407 4.407 0 00-1.853.358 4.41 4.41 0 00-1.55 1.125v-5.535H22.82v17.827zm-5.557-4.311a3.47 3.47 0 01-1.315 1.3 3.403 3.403 0 01-1.786.431 3.793 3.793 0 01-1.56-.281 3.84 3.84 0 01-1.316-.896 3.91 3.91 0 01-.848-1.359 3.956 3.956 0 01-.236-1.59 3.885 3.885 0 011.106-2.905 3.824 3.824 0 011.308-.872 3.783 3.783 0 011.55-.26 3.249 3.249 0 011.82.455c.551.328.996.81 1.28 1.39h3.562a6.77 6.77 0 00-2.486-3.617 6.6 6.6 0 00-4.152-1.295 6.803 6.803 0 00-2.717.462 6.884 6.884 0 00-3.871 3.817 7.037 7.037 0 00-.539 2.754 7.198 7.198 0 00.525 2.807c.36.89.895 1.696 1.571 2.37a6.987 6.987 0 002.364 1.55 6.903 6.903 0 002.775.48 6.565 6.565 0 004.044-1.248 6.73 6.73 0 002.482-3.473l-3.561-.02zm17.156-22.72c0-3.403-1.756-7.557-6.674-7.557a6.77 6.77 0 00-4.608 2.137 6.975 6.975 0 00-1.883 4.775c0 1.778.674 3.487 1.883 4.774a6.773 6.773 0 004.608 2.137c1.26.027 2.5-.315 3.573-.983a6.63 6.63 0 002.48-2.79h-1.937a4.974 4.974 0 01-2.369 1.832 4.895 4.895 0 01-2.975.126 4.957 4.957 0 01-2.511-1.625 5.078 5.078 0 01-1.143-2.79l11.556-.036zm-11.626-1.62a5.11 5.11 0 011.685-3.094 4.97 4.97 0 013.264-1.234 4.874 4.874 0 013.174 1.268 5.011 5.011 0 011.596 3.06h-9.72zM8.09 25.153h4.841c5.763 0 6.344-3.685 6.344-5.05a4.514 4.514 0 00-.763-2.8 4.404 4.404 0 00-2.299-1.732 4.076 4.076 0 002.124-3.576c0-4.488-3.995-4.696-5.813-4.696H8.091v17.854zm1.752-1.62v-6.967h3.066c1.744 0 4.561.307 4.561 3.54 0 3.234-2.914 3.407-4.561 3.407l-3.066.02zm0-8.603V8.907h2.64c1.286 0 4.069.075 4.069 3.025 0 2.754-2.59 3.01-4.07 3.01l-2.639-.012zm33.561 31.764a6.942 6.942 0 004.447-1.61 7.131 7.131 0 002.43-4.109 7.206 7.206 0 00-.688-4.74 7.046 7.046 0 00-3.496-3.222 6.91 6.91 0 00-4.716-.238 7.016 7.016 0 00-3.794 2.852 7.195 7.195 0 00.868 8.982 6.958 6.958 0 004.949 2.085zm-3.825-6.943a3.926 3.926 0 001.166 2.676 3.81 3.81 0 002.672 1.098 3.81 3.81 0 002.673-1.098 3.926 3.926 0 001.166-2.676c0-2.459-2.217-3.76-3.852-5.185-1.624 1.424-3.829 2.75-3.829 5.185h.004zm35.38 6.943a6.828 6.828 0 01-4.849-2.062 7.037 7.037 0 01-1.998-4.936 7.036 7.036 0 012.02-4.927 6.827 6.827 0 014.858-2.04c1.822 0 3.57.734 4.859 2.04a7.036 7.036 0 012.02 4.927 7.036 7.036 0 01-1.998 4.936 6.828 6.828 0 01-4.85 2.062h-.062zm-3.836-6.943c0 1.033.404 2.023 1.124 2.754a3.807 3.807 0 002.712 1.14c1.018 0 1.994-.41 2.713-1.14a3.924 3.924 0 001.124-2.754c0-2.459-2.217-3.76-3.837-5.185-1.623 1.424-3.836 2.75-3.836 5.185zm-8.605 2.163a3.45 3.45 0 01-1.313 1.303 3.384 3.384 0 01-1.787.428 3.825 3.825 0 01-1.555-.287 3.872 3.872 0 01-1.313-.893 3.942 3.942 0 01-1.077-2.93 3.882 3.882 0 01.248-1.576 3.84 3.84 0 01.86-1.336c.37-.38.815-.678 1.306-.873a3.8 3.8 0 011.55-.263 3.232 3.232 0 011.822.451c.551.328.995.812 1.278 1.394h3.631a6.77 6.77 0 00-2.49-3.625 6.6 6.6 0 00-4.163-1.292 6.79 6.79 0 00-2.746.443 6.869 6.869 0 00-2.35 1.51 6.992 6.992 0 00-1.568 2.33 7.08 7.08 0 00-.533 2.77 7.2 7.2 0 00.52 2.815c.36.893.895 1.703 1.573 2.379a6.989 6.989 0 002.371 1.554 6.9 6.9 0 002.783.478 6.582 6.582 0 004.054-1.276 6.748 6.748 0 002.468-3.504h-3.57z" fill="#563205"/></g><path d="M113.872 16.666c.024-.192.132-.336.324-.432.216-.096.432-.144.648-.144.168 0 .312.036.432.108.12.072.168.192.144.36-.024.12-.06.36-.108.72s-.096.757-.144 1.189c.336-.648.708-1.236 1.117-1.765.432-.528.924-.792 1.476-.792.264 0 .504.06.72.18.336.168.564.42.684.756.144.313.24.66.288 1.045.072.384.132.768.18 1.152.048.384.168.708.36.972.312.456.757.684 1.333.684.432 0 .888-.108 1.368-.324.504-.216.996-.48 1.476-.792.48-.312.925-.624 1.333-.936.408-.312.732-.552.972-.72.144-.096.312-.192.504-.288.192-.12.36-.204.504-.252.168-.073.276-.085.324-.037.072.024.024.12-.144.289-.312.336-.732.756-1.26 1.26-.528.48-1.116.948-1.765 1.404-.624.456-1.272.852-1.944 1.188-.672.313-1.32.468-1.944.468-.841 0-1.453-.252-1.837-.756-.384-.528-.648-1.164-.792-1.908a4.631 4.631 0 01-.108-.612 2.533 2.533 0 00-.144-.612c-.096-.264-.144-.456-.144-.577.024-.12.012-.18-.036-.18-.024 0-.12.049-.288.145-.288.168-.54.432-.756.792-.216.36-.408.756-.576 1.188-.169.408-.337.828-.505 1.26a3.33 3.33 0 01-.54 1.008c-.12.168-.312.277-.576.325a1.161 1.161 0 01-.648-.108c-.24-.145-.372-.445-.396-.9a6.772 6.772 0 01.036-1.549c.048-.576.12-1.128.216-1.656.12-.528.192-.913.216-1.153zm13.611.396a.527.527 0 01.252-.18c.12-.048.24-.084.36-.108.192-.192.42-.324.684-.396.264-.096.504-.12.721-.072a.888.888 0 01.72.54c.168.288.276.637.324 1.045.36.072.744.096 1.152.072.432-.048.852-.12 1.26-.216.432-.12.841-.24 1.225-.36a65.56 65.56 0 011.044-.36c.456-.145.696-.145.72 0 .024.12-.18.275-.612.467-.384.169-.792.337-1.224.505a14.59 14.59 0 01-1.261.36 10.88 10.88 0 01-1.224.216 2.915 2.915 0 01-1.044-.108c0 .432-.048.84-.144 1.224a2.69 2.69 0 01-.396 1.008 2.407 2.407 0 01-.757.72c-.312.168-.708.253-1.188.253-.336 0-.6-.085-.792-.253a1.355 1.355 0 01-.576-.9 3.497 3.497 0 010-1.224 4.64 4.64 0 01.324-1.26 5.48 5.48 0 01.432-.973zm.864 3.025c.048.144.096.3.144.468.072.168.132.264.18.288.072 0 .12-.084.144-.252.024-.192.048-.324.072-.396a3.7 3.7 0 00.108-.9 6.15 6.15 0 00-.072-.936c-.12-.024-.3-.084-.54-.18-.192.672-.204 1.308-.036 1.908zm16.174-11.81c.072-.12.228-.217.469-.289a2.66 2.66 0 01.684-.108c.312 0 .432.048.36.144-.36.697-.684 1.477-.972 2.34a29.232 29.232 0 00-.757 2.593 33.586 33.586 0 00-.54 2.701c-.12.888-.204 1.729-.252 2.52.48-.527 1.02-1.02 1.621-1.476.624-.48 1.236-.72 1.836-.72.336 0 .636.084.9.252.336.192.564.444.684.756.12.313.168.673.144 1.08.312-.191.588-.335.829-.431.24-.12.42-.216.54-.288.072-.049.204-.084.396-.108.192-.048.372-.072.54-.072.168-.024.288-.024.36 0 .072.024.024.096-.144.216-.456.264-.912.54-1.368.828a11.04 11.04 0 00-1.261.9c-.096.384-.228.78-.396 1.188a9.334 9.334 0 01-.504 1.116c-.168.337-.336.649-.504.937a7.583 7.583 0 01-.468.72c-.096.12-.252.276-.468.468a6.882 6.882 0 01-.756.576c-.264.192-.553.36-.865.504a1.851 1.851 0 01-.828.216c-.384 0-.66-.168-.828-.504-.168-.336-.156-.708.036-1.116.192-.432.492-.876.9-1.332.432-.48.924-.949 1.477-1.405a40.513 40.513 0 011.728-1.296c.048-.288.072-.552.072-.792 0-.264-.048-.492-.144-.684-.168-.288-.384-.432-.648-.432-.216 0-.456.096-.72.288a5.928 5.928 0 00-.793.612c-.24.24-.468.492-.684.756-.216.24-.396.432-.54.576-.12.144-.324.264-.612.36-.264.072-.492.072-.684 0-.312-.12-.492-.456-.54-1.008-.048-.576-.012-1.26.108-2.053.144-.816.336-1.68.576-2.592.264-.912.528-1.777.792-2.593a69.86 69.86 0 01.72-2.124c.24-.624.408-1.032.504-1.225zm1.369 13.899a5.51 5.51 0 00.324-.576c.12-.265.24-.54.36-.829a11.87 11.87 0 00-.54.576 9.893 9.893 0 00-.468.576c-.408.505-.673.9-.793 1.189-.096.288-.096.432 0 .432s.241-.108.433-.324c.192-.216.42-.564.684-1.044zm5.628-14.764a.764.764 0 01.36-.468c.192-.12.396-.18.612-.18.192 0 .348.048.468.144.12.072.156.204.108.396a117.59 117.59 0 00-.684 4.97 83.651 83.651 0 00-.432 4.932c-.024.409-.06.913-.108 1.513-.048.576-.096 1.188-.144 1.836a24.358 24.358 0 000 1.873c.024.624.108 1.176.252 1.656.144.48.288.72.432.72.144 0 .384-.264.72-.792.144-.216.372-.612.684-1.188.313-.576.661-1.189 1.045-1.837.408-.672.828-1.32 1.26-1.944.456-.648.888-1.152 1.296-1.512.144-.12.312-.229.504-.325s.36-.156.505-.18c.168-.048.276-.048.324 0 .048.048-.012.169-.18.36a11.785 11.785 0 00-1.981 2.773 70.374 70.374 0 00-1.512 2.989c-.456.936-.9 1.728-1.333 2.376-.432.648-.924.973-1.476.973-.264 0-.504-.06-.72-.18-.336-.169-.588-.457-.756-.865a8.138 8.138 0 01-.324-1.368 10.436 10.436 0 01-.108-1.476v-1.189a45.698 45.698 0 01.252-7.021c.264-2.329.576-4.657.936-6.986zm4.941 12.027c.072-.336.228-.72.468-1.152.24-.432.528-.84.864-1.225a5.308 5.308 0 011.117-.972c.408-.264.804-.396 1.188-.396.24 0 .48.06.72.18s.456.336.648.648c.168.24.12.444-.144.613-.24.167-.492.252-.756.252a.623.623 0 01-.504-.216c-.096-.145-.216-.217-.36-.217s-.288.072-.432.216a4.81 4.81 0 00-.433.505c-.12.168-.24.348-.36.54l-.216.432c-.264.624-.348.936-.252.936.096 0 .3-.12.612-.36.168-.144.325-.312.469-.504.168-.216.324-.408.468-.576.168-.192.348-.348.54-.468.192-.145.42-.216.684-.216.144 0 .276.024.396.072.144.024.24.108.288.252.144.336.228.672.252 1.008.048.312.204.6.468.864.336.336.78.504 1.333.504.456 0 .924-.096 1.404-.288.504-.216.984-.468 1.44-.756.48-.288.912-.576 1.296-.864.409-.312.733-.564.973-.757.144-.12.3-.203.468-.252.192-.072.348-.096.468-.072.12.024.18.084.18.18 0 .072-.096.193-.288.36-.384.313-.828.673-1.332 1.08a16.44 16.44 0 01-1.621 1.153c-.552.36-1.128.66-1.728.9-.6.24-1.2.36-1.801.36-1.392 0-2.28-.66-2.664-1.98l-.504.504a3.586 3.586 0 01-.36.324c-.264.216-.54.42-.829.612-.288.168-.6.276-.936.324-.552.048-.924-.072-1.116-.36-.192-.288-.228-.684-.108-1.188zm21.785-11.163c.072-.12.228-.216.468-.288a2.66 2.66 0 01.684-.108c.312 0 .432.048.36.144-.36.697-.684 1.477-.972 2.34a29.46 29.46 0 00-.756 2.593 33.586 33.586 0 00-.54 2.701c-.12.888-.204 1.729-.252 2.52.48-.527 1.02-1.02 1.62-1.476.624-.48 1.236-.72 1.836-.72.337 0 .637.084.901.252.336.192.564.444.684.756.12.313.168.673.144 1.08a5.66 5.66 0 01.828-.431c.24-.12.42-.216.54-.288.072-.049.204-.084.396-.108.192-.048.372-.072.54-.072.168-.024.288-.024.36 0 .072.024.024.096-.144.216-.456.264-.912.54-1.368.828a11.03 11.03 0 00-1.26.9c-.096.384-.228.78-.396 1.188a9.334 9.334 0 01-.504 1.116c-.168.337-.336.649-.505.937a7.583 7.583 0 01-.468.72c-.096.12-.252.276-.468.468a6.882 6.882 0 01-.756.576c-.264.192-.552.36-.864.504a1.851 1.851 0 01-.828.216c-.384 0-.66-.168-.828-.504-.169-.336-.157-.708.036-1.116.192-.432.492-.876.9-1.332.432-.48.924-.949 1.476-1.405a40.513 40.513 0 011.728-1.296c.048-.288.072-.552.072-.792 0-.264-.048-.492-.144-.684-.168-.288-.384-.432-.648-.432-.216 0-.456.096-.72.288a5.859 5.859 0 00-.792.612c-.24.24-.468.492-.684.756-.216.24-.396.432-.54.576-.12.144-.324.264-.612.36-.265.072-.493.072-.685 0-.312-.12-.492-.456-.54-1.008-.048-.576-.012-1.26.108-2.053.144-.816.336-1.68.576-2.592.264-.912.529-1.777.793-2.593a69.86 69.86 0 01.72-2.124c.24-.624.408-1.032.504-1.225zm1.368 13.9a5.51 5.51 0 00.324-.576c.12-.265.24-.54.36-.829a11.87 11.87 0 00-.54.576 9.893 9.893 0 00-.468.576c-.408.505-.672.9-.792 1.189-.096.288-.096.432 0 .432s.24-.108.432-.324c.192-.216.42-.564.684-1.044zm5.628-14.764a.762.762 0 01.361-.468c.192-.12.396-.18.612-.18.192 0 .348.048.468.144.12.072.156.204.108.396a117.59 117.59 0 00-.684 4.97 83.651 83.651 0 00-.432 4.932 67.8 67.8 0 01-.109 1.513c-.048.576-.096 1.188-.144 1.836a24.358 24.358 0 000 1.873c.024.624.108 1.176.253 1.656.144.48.288.72.432.72.144 0 .384-.264.72-.792.144-.216.372-.612.684-1.188a55.01 55.01 0 011.044-1.837c.408-.672.828-1.32 1.26-1.944.457-.648.889-1.152 1.297-1.512.144-.12.312-.229.504-.325s.36-.156.504-.18c.168-.048.276-.048.324 0 .048.048-.012.169-.18.36a11.81 11.81 0 00-1.98 2.773 69.267 69.267 0 00-1.513 2.989c-.456.936-.9 1.728-1.332 2.376-.432.648-.924.973-1.476.973a1.46 1.46 0 01-.721-.18c-.336-.169-.588-.457-.756-.865a8.138 8.138 0 01-.324-1.368 10.436 10.436 0 01-.108-1.476v-1.189a45.698 45.698 0 01.252-7.021c.264-2.329.576-4.657.936-6.986zm4.941 12.027c.072-.336.228-.72.469-1.152.24-.432.528-.84.864-1.225a5.328 5.328 0 011.116-.972c.408-.264.804-.396 1.188-.396.24 0 .48.06.72.18s.457.336.649.648c.168.24.12.444-.144.613a1.303 1.303 0 01-.757.252.623.623 0 01-.504-.216c-.096-.145-.216-.217-.36-.217s-.288.072-.432.216a4.692 4.692 0 00-.432.505c-.12.168-.24.348-.36.54l-.216.432c-.264.624-.348.936-.252.936.096 0 .3-.12.612-.36.168-.144.324-.312.468-.504.168-.216.324-.408.468-.576.168-.192.348-.348.54-.468.192-.145.42-.216.684-.216.144 0 .276.024.396.072a.347.347 0 01.289.252c.144.336.228.672.252 1.008.048.312.204.6.468.864.336.336.78.504 1.332.504.456 0 .924-.096 1.404-.288.504-.216.985-.468 1.441-.756.48-.288.912-.576 1.296-.864.408-.312.732-.564.972-.757.144-.12.3-.203.468-.252.192-.072.348-.096.468-.072.12.024.18.084.18.18 0 .072-.096.193-.288.36-.384.313-.828.673-1.332 1.08a16.15 16.15 0 01-1.62 1.153c-.552.36-1.129.66-1.729.9-.6.24-1.2.36-1.8.36-1.392 0-2.281-.66-2.665-1.98l-.504.504a3.586 3.586 0 01-.36.324c-.264.216-.54.42-.828.612-.288.168-.6.276-.936.324-.552.048-.925-.072-1.117-.36-.192-.288-.228-.684-.108-1.188zm-79.874 28.886a7.96 7.96 0 011.116-3.385 15.004 15.004 0 012.233-2.917c-.12-.72-.168-1.44-.144-2.16 0-.72.12-1.428.36-2.125.048-.144.192-.252.432-.324.264-.096.492-.144.684-.144.312 0 .444.072.396.216a7.436 7.436 0 00-.324 1.585 9.133 9.133 0 000 1.62c.456-.408.912-.768 1.369-1.08.456-.312.924-.6 1.404-.864.096-.048.24-.096.432-.144.192-.072.36-.12.504-.145.168-.047.288-.06.36-.035.072.023.024.096-.144.216-.624.48-1.26.984-1.908 1.512a25.34 25.34 0 00-1.909 1.728c.12.72.252 1.453.396 2.197.168.72.3 1.452.396 2.196.096.72.145 1.44.145 2.16 0 .721-.109 1.43-.325 2.125-.216.696-.612 1.236-1.188 1.62-.552.409-1.212.517-1.98.325a2.504 2.504 0 01-1.117-.648 2.99 2.99 0 01-.72-1.009 4.304 4.304 0 01-.396-1.224 6.041 6.041 0 01-.072-1.296zm2.737 3.096c.24.169.444.252.612.252.24 0 .396-.144.468-.432.096-.264.18-.6.252-1.008a8.26 8.26 0 00.108-2.304 36.665 36.665 0 00-.288-2.34c-.048-.36-.108-.721-.18-1.081-.048-.36-.108-.732-.18-1.116a12.985 12.985 0 00-1.08 1.728 8.876 8.876 0 00-.72 1.873c-.072.335-.12.72-.144 1.152-.048.408-.036.828.036 1.26.048.408.168.792.36 1.152.168.36.42.648.756.864zm.9-16.995c.096-.457.252-.769.468-.937.216-.168.564-.252 1.044-.252.144 0 .252.024.324.072.072.024.072.084 0 .18-.144.144-.24.373-.288.685-.024.144-.168.264-.432.36-.24.072-.468.108-.684.108-.312 0-.456-.072-.432-.216zm4.963 2.88c.072-.144.228-.252.468-.324.24-.096.468-.144.684-.144.313 0 .433.084.361.252-.096.24-.204.504-.324.792a35.94 35.94 0 00-.289.9 11.06 11.06 0 00-.18.865 3.15 3.15 0 00.036.828c.072.432.216.648.433.648.168 0 .348-.084.54-.252a7.86 7.86 0 00.576-.648c.216-.24.408-.48.576-.72.192-.264.348-.456.468-.576.36-.408.804-.529 1.332-.36.12.048.18.096.18.144 0 .888.156 1.512.468 1.872a1.67 1.67 0 001.225.504c.408 0 .852-.096 1.332-.288.504-.192.984-.408 1.44-.648.48-.264.925-.54 1.333-.828a56.99 56.99 0 001.008-.684c.096-.072.252-.145.468-.217.216-.095.42-.167.612-.215.192-.072.324-.096.396-.072.096 0 .06.072-.108.215-.456.385-.948.78-1.476 1.189a16.19 16.19 0 01-1.621 1.152c-.552.336-1.128.624-1.728.864a7.03 7.03 0 01-1.872.396 4.469 4.469 0 01-1.261-.036 2.119 2.119 0 01-1.08-.648 1.793 1.793 0 01-.216-.324l-.216-.576a7.743 7.743 0 01-.72.828 5.18 5.18 0 01-.792.648 3.207 3.207 0 01-.901.36c-.312.072-.636.06-.972-.036-.456-.12-.744-.384-.864-.792-.12-.408-.144-.864-.072-1.368a6.818 6.818 0 01.324-1.512c.168-.505.312-.9.432-1.189zm13.055-.9c.553-.336 1.093-.504 1.621-.504a2.49 2.49 0 011.512.504c.456.312.78.768.972 1.368a93.472 93.472 0 011.621-3.096 115.305 115.305 0 011.548-2.809c-1.368.048-2.737.108-4.105.18-1.344.072-2.688.12-4.033.144-.264 0-.408-.048-.432-.144-.024-.096.012-.192.108-.288a1.37 1.37 0 01.396-.324c.192-.12.36-.18.504-.18a225.9 225.9 0 004.033-.108c1.345-.072 2.701-.132 4.069-.18l.792-1.405c.216-.408.372-.708.468-.9.049-.12.217-.216.505-.288a2.44 2.44 0 01.756-.144c.192 0 .276.048.252.144-.024.12-.072.396-.144.828a29.76 29.76 0 01-.252 1.693 46.857 46.857 0 013.673 0 45.49 45.49 0 013.636.216c.264.024.408.096.432.216.025.096-.012.204-.108.324-.096.096-.24.192-.432.288-.168.072-.324.096-.468.072a40.195 40.195 0 00-3.421-.216 40.63 40.63 0 00-3.42 0c-.168.96-.336 2.016-.504 3.169a81.544 81.544 0 00-.432 3.384 201.802 201.802 0 00-.253 3.241 25.208 25.208 0 000 2.7c.048.769.144 1.357.289 1.765.144.408.36.552.648.432.072-.024.132.012.18.108a.512.512 0 01.072.288.646.646 0 01-.108.325.485.485 0 01-.324.18c-.577.096-1.033-.073-1.369-.505-.336-.456-.576-1.068-.72-1.836-.12-.792-.18-1.704-.18-2.737.024-1.056.072-2.136.144-3.24.096-1.105.216-2.197.36-3.277.144-1.104.276-2.088.396-2.953l-1.872 3.53a123.3 123.3 0 00-1.765 3.528c-.12.264-.252.54-.396.828-.144.288-.276.576-.396.864.288.336.492.696.612 1.08.144.36.156.805.036 1.333-.024.168-.12.408-.288.72a6.414 6.414 0 01-.648.9 4.14 4.14 0 01-.828.756c-.288.216-.576.324-.864.324a1.16 1.16 0 01-.504-.144c-.36-.216-.444-.756-.252-1.62.192-.864.54-1.908 1.044-3.133l-.432-.432a17.603 17.603 0 00-1.152-1.116 7.63 7.63 0 01-1.117-1.296c-.288-.432-.42-.865-.396-1.297.024-.456.336-.876.936-1.26zm2.737 4.105l.576-1.224c.216-.408.42-.816.612-1.225-.12.096-.288.169-.504.217a2.577 2.577 0 01-.54.071c-.168 0-.276-.035-.324-.108a.914.914 0 00-.504-.792c-.288-.192-.576-.288-.864-.288-.384 0-.612.108-.684.324-.072.24-.036.504.108.793.168.288.384.576.648.864.264.288.528.552.792.792.288.24.516.432.684.576zm.36 2.953v-.072c-.072.192-.144.396-.216.612a4.558 4.558 0 00-.18.612c-.168.624-.24.936-.216.936.024 0 .072-.084.144-.252.072-.168.144-.36.216-.576.072-.24.132-.48.18-.72.048-.24.072-.42.072-.54zm16.227-5.185c.312-.289.66-.54 1.044-.757.408-.216.828-.3 1.26-.252.36.048.625.192.793.432.168.24.156.529-.036.865-.072.12-.24.216-.505.288a2.28 2.28 0 01-.648.108c-.288 0-.42-.048-.396-.144.096-.168.144-.3.144-.397.024-.095-.06-.167-.252-.215-.048-.025-.12.023-.216.143a2.36 2.36 0 00-.288.36c-.072.12-.156.24-.252.36-.072.12-.108.193-.108.217-.12.24-.24.504-.36.792a1.61 1.61 0 00-.072.828c.072.552.384.828.936.828.48-.024.96-.144 1.44-.36.505-.216.985-.48 1.441-.792.48-.312.924-.636 1.332-.972.432-.36.828-.66 1.188-.9.072-.048.204-.108.396-.18.192-.096.373-.169.541-.216.168-.072.3-.108.396-.108.096-.025.096 0 0 .072a37.865 37.865 0 01-2.629 2.124c-.912.672-1.908 1.2-2.989 1.584-.384.144-.828.276-1.332.396-.504.096-.96.084-1.368-.036-.504-.12-.792-.36-.864-.72-.096-.36-.072-.756.072-1.188a4.87 4.87 0 01.612-1.224c.264-.408.504-.72.72-.937zm6.708 2.412l.144-2.16.144-2.125c.12-1.296.216-2.508.288-3.637a19.65 19.65 0 01.648-3.565c.048-.12.156-.264.324-.432.192-.168.384-.312.576-.432.216-.12.396-.192.54-.216.168-.048.228-.012.18.108a21.688 21.688 0 00-.648 3.637c-.096 1.272-.204 2.52-.324 3.745l-.144 1.944-.144 1.98c.192-.383.396-.743.612-1.08.24-.36.492-.66.756-.9.289-.264.577-.444.865-.54.312-.12.648-.132 1.008-.036.288.072.504.228.648.468.168.24.288.504.36.792.096.289.156.589.18.9.048.313.108.589.18.829.144.576.324 1.032.54 1.368.216.312.528.468.937.468.408 0 .912-.18 1.512-.54a24.367 24.367 0 001.836-1.224c.576-.432 1.177-.888 1.801-1.368a2.96 2.96 0 01.432-.252 1.84 1.84 0 01.504-.18c.168-.049.288-.06.36-.037.072.024.036.12-.108.288l-1.224 1.225c-.504.504-1.081.996-1.729 1.476-.648.48-1.32.9-2.016 1.26s-1.356.54-1.981.54c-.6 0-1.104-.191-1.512-.576-.168-.144-.324-.432-.468-.864a42.78 42.78 0 00-.396-1.404c-.12-.504-.24-.936-.36-1.296-.096-.384-.192-.576-.288-.576-.24 0-.48.18-.72.54a9.55 9.55 0 00-.685 1.224l-.648 1.368c-.192.432-.36.744-.504.936-.072.12-.216.228-.432.325-.216.072-.42.108-.612.108-.216 0-.36-.084-.432-.252-.024-.049-.036-.145-.036-.289v-.54c0-.192.012-.384.036-.576v-.432zm13.585-2.629a.527.527 0 01.252-.18c.12-.048.24-.084.36-.108.192-.192.42-.324.684-.396.264-.096.504-.12.72-.072a.888.888 0 01.721.54c.168.289.276.637.324 1.045.36.072.744.096 1.152.072.432-.048.852-.12 1.26-.216.432-.12.84-.24 1.225-.36a65.56 65.56 0 011.044-.36c.456-.145.696-.145.72 0 .024.12-.18.276-.612.468-.384.168-.792.336-1.225.504a14.47 14.47 0 01-1.26.36 10.88 10.88 0 01-1.224.216 2.915 2.915 0 01-1.044-.108c0 .432-.048.84-.144 1.224a2.69 2.69 0 01-.396 1.008 2.418 2.418 0 01-.757.72c-.312.169-.708.253-1.188.253-.336 0-.6-.084-.792-.253a1.355 1.355 0 01-.576-.9 3.497 3.497 0 010-1.224 4.64 4.64 0 01.324-1.26 5.48 5.48 0 01.432-.973zm.864 3.025c.048.144.096.3.144.468.072.168.132.264.18.288.072 0 .12-.084.144-.252.024-.192.048-.324.072-.396a3.7 3.7 0 00.108-.9 6.15 6.15 0 00-.072-.936c-.12-.024-.3-.084-.54-.18-.192.672-.204 1.308-.036 1.908zm6.834-2.809c.312-.288.66-.54 1.044-.756.408-.216.828-.3 1.26-.252.36.048.624.192.792.432.168.24.156.529-.036.865-.072.12-.24.216-.504.288a2.28 2.28 0 01-.648.108c-.288 0-.42-.048-.396-.144.096-.168.144-.3.144-.397.024-.095-.06-.167-.252-.215-.048-.025-.12.023-.216.143a2.36 2.36 0 00-.288.36c-.072.12-.156.24-.252.36-.072.12-.108.193-.108.217-.12.24-.24.504-.36.792a1.61 1.61 0 00-.072.828c.072.552.384.828.936.828.48-.024.96-.144 1.44-.36.504-.216.984-.48 1.44-.792.481-.312.925-.636 1.333-.972.432-.36.828-.66 1.188-.9.072-.048.204-.108.396-.18a3.16 3.16 0 01.54-.216c.168-.072.3-.108.396-.108.096-.025.096 0 0 .072a37.613 37.613 0 01-2.628 2.124c-.912.672-1.909 1.2-2.989 1.584-.384.144-.828.276-1.332.396-.504.096-.96.084-1.369-.036-.504-.12-.792-.36-.864-.72-.096-.36-.072-.756.072-1.188a4.87 4.87 0 01.612-1.224c.264-.408.505-.72.721-.937zm7.212-.216a.527.527 0 01.252-.18c.12-.048.24-.084.36-.108.192-.192.42-.324.684-.396.264-.096.504-.12.72-.072a.888.888 0 01.72.54c.168.289.276.637.324 1.045.36.072.744.096 1.153.072.432-.048.852-.12 1.26-.216.432-.12.84-.24 1.224-.36a65.56 65.56 0 011.044-.36c.456-.145.697-.145.721 0 .024.12-.181.276-.613.468-.384.168-.792.336-1.224.504a14.47 14.47 0 01-1.26.36 10.88 10.88 0 01-1.224.216 2.918 2.918 0 01-1.045-.108c0 .432-.048.84-.144 1.224a2.69 2.69 0 01-.396 1.008 2.414 2.414 0 01-.756.72c-.312.169-.708.253-1.188.253-.336 0-.6-.084-.792-.253a1.357 1.357 0 01-.577-.9 3.497 3.497 0 010-1.224c.048-.432.156-.852.325-1.26a5.48 5.48 0 01.432-.973zm.864 3.025c.048.144.096.3.144.468.072.168.132.264.18.288.072 0 .12-.084.144-.252.024-.192.048-.324.072-.396a3.7 3.7 0 00.108-.9 6.15 6.15 0 00-.072-.936c-.12-.024-.3-.084-.54-.18-.192.672-.204 1.308-.036 1.908zm7.733-12.675a.764.764 0 01.36-.468c.193-.12.397-.18.613-.18.192 0 .348.048.468.144.12.072.156.204.108.396a117.597 117.597 0 00-.684 4.97 83.651 83.651 0 00-.432 4.932c-.025.409-.061.913-.109 1.513-.048.576-.096 1.188-.144 1.836a24.358 24.358 0 000 1.873c.024.624.108 1.176.253 1.656.144.48.288.72.432.72.144 0 .384-.264.72-.792.144-.216.372-.612.684-1.188.312-.576.66-1.188 1.044-1.837.408-.672.828-1.32 1.26-1.944.457-.648.889-1.152 1.297-1.512a2.65 2.65 0 01.504-.325 1.84 1.84 0 01.504-.18c.168-.048.276-.048.324 0 .048.048-.012.168-.18.36a11.81 11.81 0 00-1.98 2.773 69.267 69.267 0 00-1.513 2.989c-.456.936-.9 1.728-1.332 2.376-.432.648-.924.973-1.476.973a1.46 1.46 0 01-.721-.18c-.336-.169-.588-.457-.756-.865a8.138 8.138 0 01-.324-1.368 10.436 10.436 0 01-.108-1.476v-1.189a45.698 45.698 0 01.252-7.021c.264-2.329.576-4.657.936-6.986zm5.013 12.171c.048-.336.192-.708.433-1.116.24-.432.54-.84.9-1.224a5.6 5.6 0 011.152-1.009c.432-.264.852-.396 1.26-.396.528 0 .96.252 1.297.756.048.072.036.144-.036.216a.775.775 0 01-.253.216 1.99 1.99 0 01-.396.18 2.624 2.624 0 01-.432.036c-.144 0-.252-.035-.324-.107-.096-.145-.216-.217-.36-.217s-.3.072-.468.217c-.144.12-.288.276-.432.468-.12.192-.228.384-.324.576a3.59 3.59 0 00-.216.432c-.12.288-.228.552-.324.792-.096.216-.072.324.072.324.096 0 .264-.072.504-.216.216-.144.396-.3.54-.468.144-.192.288-.372.432-.54.144-.192.3-.36.468-.504.192-.144.42-.252.684-.324.12-.024.276-.036.468-.036.193-.024.325.024.397.144.096.192.144.384.144.576 0 .192.048.384.144.576.192.6.564 1.008 1.116 1.224.144-.072.288-.192.432-.36.144-.168.264-.348.36-.54.12-.216.216-.42.288-.612l.252-.504a34.223 34.223 0 001.477-3.313c.432-1.128.828-2.28 1.188-3.457-1.513.048-3.025.06-4.537.036-1.489-.048-2.953-.12-4.393-.216-.264-.024-.42-.084-.468-.18-.024-.12.012-.24.108-.36s.228-.228.396-.324c.192-.096.372-.144.54-.144 2.809.216 5.689.288 8.642.216.144-.456.276-.912.396-1.368l.432-1.369c0-.072.036-.12.108-.144a.976.976 0 01.432-.288c.192-.096.384-.144.576-.144.384 0 .54.12.468.36-.24.912-.432 1.885-.576 2.917 1.297-.048 2.569-.108 3.817-.18 1.272-.096 2.521-.204 3.745-.324.264-.024.432.012.504.108.096.096.12.204.072.324-.024.12-.108.24-.252.36a1.152 1.152 0 01-.504.18c-1.224.12-2.461.228-3.709.324-1.248.072-2.508.132-3.781.18l-.216 1.873c-.072.816-.144 1.728-.216 2.736-.072.984-.132 2.017-.18 3.097a60.473 60.473 0 000 2.953c.024.912.096 1.692.216 2.34.144.648.336 1.056.576 1.224.264.168.276.312.036.432a1.754 1.754 0 01-.72.145c-.216 0-.384-.037-.504-.108-.264-.169-.48-.505-.648-1.009a10.6 10.6 0 01-.324-1.8c-.072-.696-.12-1.44-.144-2.233 0-.792.012-1.56.036-2.304a84.26 84.26 0 00.108-2.125c.048-.648.084-1.164.108-1.548l-.432 1.08c-.144.336-.3.672-.468 1.008-.168.409-.372.84-.613 1.297-.216.456-.48.876-.792 1.26a5.05 5.05 0 01-1.08.936c-.384.24-.84.36-1.368.36-.36-.024-.66-.096-.9-.216a1.69 1.69 0 01-.541-.468 2.819 2.819 0 01-.36-.648 8.568 8.568 0 00-.252-.72c-.168.216-.348.444-.54.684a2.879 2.879 0 01-.432.468c-.24.168-.492.324-.756.468a2.78 2.78 0 01-.792.252c-.552.072-.913.024-1.081-.144-.192-.192-.252-.54-.18-1.044zm14.105-.612c.12-.312.288-.624.504-.936a3.81 3.81 0 01.684-.828 2.98 2.98 0 01.864-.613 2.307 2.307 0 011.044-.252c.312 0 .528.096.648.288a.74.74 0 01.145.54 1.42 1.42 0 01-.217.577 2.647 2.647 0 01-.36.54 1.725 1.725 0 01-.396.36c-.24.168-.492.3-.756.396a1.6 1.6 0 01-.756.036c-.12.312-.168.624-.144.936.024.288.216.48.576.576.288.096.588.084.9-.036.336-.144.624-.276.864-.396a20.02 20.02 0 002.017-1.152 34.685 34.685 0 001.908-1.368c.096-.072.24-.145.432-.217.192-.095.361-.167.505-.215.168-.049.288-.06.36-.037.072.024.036.108-.108.252a27.102 27.102 0 01-3.097 2.521c-.552.36-1.14.672-1.764.936a6.38 6.38 0 01-1.873.504c-.864.096-1.5-.06-1.908-.468-.432-.408-.456-1.056-.072-1.944zm2.268-1.26a.552.552 0 00.072-.216.32.32 0 01.036-.145 2.59 2.59 0 00-.324.397l-.216.36c.168.12.264.12.288 0a7.18 7.18 0 01.144-.396z" fill="#563205"/><g clip-path="url(#clip1_0_1)" fill="#563205"><path d="M211.496 25.635a1.667 1.667 0 010-.36c.136-.636.063-1.3-.21-1.89a10.116 10.116 0 00-.721-1.23 36.534 36.534 0 01-3-5.342 7.335 7.335 0 01-.96-3.3 4.104 4.104 0 011.56-3.002 3.27 3.27 0 014.141 0 7.686 7.686 0 011.56 1.861l.15.24.72-.45a3.006 3.006 0 012.431-.27 2.789 2.789 0 011.95 2.52 4.167 4.167 0 01-1.2 3.211c-.75.78-1.59 1.5-2.4 2.22-.75.6-1.416 1.296-1.981 2.071a.751.751 0 01-1.11.18.746.746 0 01-.21-.93 11.993 11.993 0 013.001-3c.51-.39 1.02-.81 1.5-1.261a3.36 3.36 0 001.02-1.86 1.473 1.473 0 00-1.159-1.734 1.467 1.467 0 00-.761.053 3.809 3.809 0 00-1.441.81c-.51.42-.93.36-1.23-.21a9.229 9.229 0 00-1.47-2.07 2.187 2.187 0 00-1.651-.69 2.312 2.312 0 00-1.92 1.71 4.415 4.415 0 000 2.49 18.726 18.726 0 001.71 3.691l1.621 3.001c.431.747.649 1.598.63 2.46a1.983 1.983 0 01-.51 1.261l-.06-.18zM223.618 2.02l.75-.66a2.339 2.339 0 011.53-.69 2.427 2.427 0 012.251 1.5 3.778 3.778 0 01-.33 3.99 8.98 8.98 0 01-1.651 1.71 14.011 14.011 0 00-3.3 4.082 5.863 5.863 0 01-.691.99.478.478 0 01-.57 0 .385.385 0 01-.287-.176.392.392 0 01-.043-.334c.061-.176.076-.365.044-.548a1.101 1.101 0 00-.224-.502 37.109 37.109 0 01-1.89-4.531 21.224 21.224 0 01-.87-2.671 3.26 3.26 0 01.84-3.21 2.396 2.396 0 012.585-.66c.297.106.571.268.806.48.34.31.652.651.93 1.02.046.065.086.136.12.21zm-1.591 8.611l.27-.39a18.32 18.32 0 013.331-3.66 4.977 4.977 0 001.561-2.131 2.105 2.105 0 00-.451-2.19.927.927 0 00-1.26-.18l-.6.42-.9.9c-.42.39-.81.33-1.11-.18-.3-.51-.481-.81-.751-1.17a1.53 1.53 0 00-.84-.6 1.35 1.35 0 00-1.62 1.05 3.934 3.934 0 00.18 2.49c.45 1.23.96 2.46 1.44 3.69.33.631.48 1.291.75 1.951z"/></g><defs><clipPath id="clip0_0_1"><path fill="#fff" transform="translate(0 .16)" d="M0 0h89.112v53.682H0z"/></clipPath><clipPath id="clip1_0_1"><path fill="#fff" transform="translate(206.605 .16)" d="M0 0h21.935v25.476H0z"/></clipPath></defs></svg>