<svg width="140" height="140" fill="none" xmlns="http://www.w3.org/2000/svg"><path fill-rule="evenodd" clip-rule="evenodd" d="M17.076 0v17.19h5.14V5.168h112.557v112.557H122.81v5.199H140V0H17.076z" fill="#5A3417"/><path fill-rule="evenodd" clip-rule="evenodd" d="M64.453 17.076H0V140h122.924V80.463c-.4.282-.814.547-1.259.815a16.286 16.286 0 01-18.1-1.139 16.301 16.301 0 01-4.205-4.785 14.838 14.838 0 01-.873-1.762l-.208-.475c-3.309.59-6.719.141-9.762-1.281a16.298 16.298 0 01-7.241-6.671 15.954 15.954 0 01-1.911-5.125 15.46 15.46 0 01-.252-4.043 16.273 16.273 0 01-6.372-3.442 16.287 16.287 0 01-3.612-19.973c-.4-.385-.785-.785-1.155-1.215a16.344 16.344 0 01-1.747-2.473 16.294 16.294 0 01-1.778-11.849v.03h.004z" fill="#FFCC03"/><path fill-rule="evenodd" clip-rule="evenodd" d="M35.026 122.924h3.865v-8.515c0-1.482.208-4.444 3.347-4.444 1.482 0 3.229.815 3.229 4.444v8.515h3.866v-9.39c0-4.532-2.564-7.213-6.28-7.213a5.374 5.374 0 00-2.28.435 5.335 5.335 0 00-1.882 1.358v-6.679h-3.865v21.489zm-6.797-5.199a4.241 4.241 0 01-3.807 2.089 4.731 4.731 0 01-1.907-.342 4.67 4.67 0 01-1.608-1.081 4.749 4.749 0 01-1.037-1.638 4.692 4.692 0 01-.29-1.917 4.64 4.64 0 012.954-4.544 4.647 4.647 0 011.888-.315 4.028 4.028 0 013.806 2.222h4.354a8.165 8.165 0 00-3.038-4.36 8.145 8.145 0 00-5.078-1.564 8.44 8.44 0 00-3.334.544 8.406 8.406 0 00-5.418 7.914 8.563 8.563 0 002.57 6.263 8.565 8.565 0 006.314 2.445 8.128 8.128 0 004.956-1.514 8.105 8.105 0 003.028-4.203h-4.354v.001zm20.985-27.383c0-4.102-2.148-9.109-8.16-9.109a8.341 8.341 0 000 16.664 8.027 8.027 0 007.405-4.546h-2.37a6.067 6.067 0 01-6.558 2.393 6.08 6.08 0 01-3.087-1.97 6.081 6.081 0 01-1.392-3.385l14.158-.044.004-.003zm-14.217-1.955a6.13 6.13 0 016.056-5.199 6.017 6.017 0 015.836 5.199H34.997zm-17.995 9.137h5.924c7.05 0 7.76-4.444 7.76-6.088a5.392 5.392 0 00-3.748-5.463 4.901 4.901 0 002.592-4.308c0-5.407-4.888-5.659-7.123-5.659H17v21.52l.002-.002zm2.148-1.955v-8.397h3.747c2.132 0 5.584.37 5.584 4.295s-3.57 4.102-5.584 4.102H19.15zm0-10.367v-7.256h3.228c1.57 0 4.976.09 4.976 3.642 0 3.303-3.17 3.63-4.976 3.63l-3.229-.016zm41.052 38.285a8.587 8.587 0 007.968-5.273 8.582 8.582 0 00-6.23-11.738 8.592 8.592 0 00-4.97.48 8.6 8.6 0 00-2.817 14.004 8.577 8.577 0 006.05 2.527zm-4.68-8.368a4.694 4.694 0 109.39 0c0-2.962-2.71-4.532-4.71-6.25-1.985 1.718-4.68 3.318-4.68 6.25zm43.291 8.368a8.593 8.593 0 008.019-5.22 8.59 8.59 0 00-1.785-9.4 8.589 8.589 0 00-9.375-1.914 8.585 8.585 0 00-5.332 7.946 8.576 8.576 0 008.545 8.59h-.074l.002-.002zm-4.695-8.368a4.694 4.694 0 008.015 3.32 4.694 4.694 0 001.375-3.32c0-2.962-2.71-4.532-4.695-6.25-1.985 1.718-4.695 3.318-4.695 6.25zm-10.53 2.606a4.204 4.204 0 01-3.806 2.088 4.731 4.731 0 01-3.507-1.428 4.704 4.704 0 01-1.322-3.547 4.683 4.683 0 01.307-1.886 4.651 4.651 0 014.52-2.971 4.003 4.003 0 013.806 2.221h4.444a8.163 8.163 0 00-8.117-5.923 8.426 8.426 0 00-3.367.524 8.438 8.438 0 00-2.884 1.818 8.417 8.417 0 00-2.575 6.158 8.568 8.568 0 002.567 6.268 8.546 8.546 0 002.909 1.871 8.527 8.527 0 003.412.568 8.125 8.125 0 004.962-1.535 8.14 8.14 0 003.02-4.226h-4.369z" fill="#5A3417"/></svg>