<svg xmlns="http://www.w3.org/2000/svg">
<symbol id="cart" viewBox="0 0 15 21">
<g>
<path d="M0.75 6.23L1.2 14.78C1.51 17.89 4.12 20.25 7.25 20.25C10.37 20.25 12.99 17.88 13.3 14.78L13.75 6.23"/>
<path d="M0 5.67H14.5"/>
<path d="M11.0001 8L10.35 3.48C10.16 1.92 8.83001 0.75 7.26 0.75C5.69 0.75 4.36 1.92 4.17 3.48L3.50012 8"/>
</g>
</symbol>
<symbol id="user" viewBox="0 0 15 21">
<g>
<path d="M14 20L13.6074 16.4664C13.2616 13.3544 10.6312 11 7.5 11V11C4.36884 11 1.73841 13.3544 1.39263 16.4664L1 20"/>
<rect x="4.75" y="0.75" width="5.5" height="7.5" rx="2.75"/>
</g>
</symbol>
<symbol id="heart" viewBox="0 0 18 19">
<g>
<path d="M8.87986 5.05C8.87986 2.68 6.94986 0.75 4.57986 0.75C4.45986 0.75 4.33986 0.75 4.22986 0.76C1.34986 1 -0.180138 4.32 1.35986 6.77L7.53986 16.66C8.15986 17.66 9.60986 17.66 10.2299 16.66L16.4099 6.77C17.9399 4.32 16.4099 0.99 13.5399 0.76C13.4199 0.76 13.3099 0.75 13.1899 0.75C10.8199 0.75 8.88986 2.68 8.88986 5.05"/>
</g>
</symbol>
<symbol id="bars" viewBox="0 0 20 14">
<g>
<line y1="1.25" x2="20" y2="1.25"/>
<line y1="7.25" x2="20" y2="7.25"/>
<line y1="13.25" x2="20" y2="13.25"/>
</g>
</symbol>
<symbol id="plus" viewBox="0 0 14 14">
<g>
<line x1="7.24902" y1="3.27835e-08" x2="7.24902" y2="14"/>
<line y1="6.7561" x2="14" y2="6.7561"/>
</g>
</symbol>
<symbol id="minus" viewBox="0 0 14 2">
<g>
<line y1="0.756104" x2="14" y2="0.756104"/>
</g>
</symbol>
<symbol id="shevronL" viewBox="0 0 5 8">
<g>
<path d="M2.2619 8H2.7381L0 4L2.7381 0H"/>
</g>
</symbol>
<symbol id="arrowL" viewBox="0 0 15 12">
<g>
<path d="M6.09831 10.7727L1.27255 5.99998M1.27255 5.99998L6.09831 1.22725M1.27255 5.99998L13.6816 5.99998" stroke-linecap="square" stroke-linejoin="round"/>
</g>
</symbol>
<symbol id="arrowSmallL" viewBox="0 0 14 8">
<g>
<path d="M3.66667 6.66663L1 3.99996M1 3.99996L3.66667 1.33329M1 3.99996L13 3.99996" stroke="#563205" stroke-linecap="square"/>
</g>
</symbol>
<symbol id="drop" viewBox="0 0 23 28">
<g>
<path d="M11.1426 2L18.2136 9.07107C22.1189 12.9763 22.1189 19.308 18.2136 23.2132C14.3084 27.1184 7.97675 27.1184 4.07151 23.2132C0.166268 19.308 0.166268 12.9763 4.07151 9.07107L11.1426 2Z"/>
<path d="M11.4961 1.64645L11.1426 1.29289L10.789 1.64645L3.71796 8.71751C-0.382548 12.818 -0.382548 19.4663 3.71796 23.5668C7.81846 27.6673 14.4667 27.6673 18.5672 23.5668C22.6677 19.4663 22.6677 12.818 18.5672 8.71751L11.4961 1.64645Z"/>
</g>
</symbol>
<symbol id="check" viewBox="0 0 9 7">
<g>
<path d="M1 4L3 6L8 1" stroke="white" stroke-linecap="square" stroke-linejoin="round"/>
</g>
</symbol>
<symbol id="filtr" viewBox="0 0 18 18">
<g>
<path d="M9 3V1M9 3C8.46957 3 7.96086 3.21071 7.58579 3.58579C7.21071 3.96086 7 4.46957 7 5C7 5.53043 7.21071 6.03914 7.58579 6.41421C7.96086 6.78929 8.46957 7 9 7M9 3C9.53043 3 10.0391 3.21071 10.4142 3.58579C10.7893 3.96086 11 4.46957 11 5C11 5.53043 10.7893 6.03914 10.4142 6.41421C10.0391 6.78929 9.53043 7 9 7M9 7V17M3 15C3.53043 15 4.03914 14.7893 4.41421 14.4142C4.78929 14.0391 5 13.5304 5 13C5 12.4696 4.78929 11.9609 4.41421 11.5858C4.03914 11.2107 3.53043 11 3 11M3 15C2.46957 15 1.96086 14.7893 1.58579 14.4142C1.21071 14.0391 1 13.5304 1 13C1 12.4696 1.21071 11.9609 1.58579 11.5858C1.96086 11.2107 2.46957 11 3 11M3 15V17M3 11V1M15 15C15.5304 15 16.0391 14.7893 16.4142 14.4142C16.7893 14.0391 17 13.5304 17 13C17 12.4696 16.7893 11.9609 16.4142 11.5858C16.0391 11.2107 15.5304 11 15 11M15 15C14.4696 15 13.9609 14.7893 13.5858 14.4142C13.2107 14.0391 13 13.5304 13 13C13 12.4696 13.2107 11.9609 13.5858 11.5858C13.9609 11.2107 14.4696 11 15 11M15 15V17M15 11V1" stroke-linecap="square" stroke-linejoin="round"/>
</g>
</symbol>
<symbol id="close" viewBox="0 0 14 13">
<g>
<path d="M1.15999 11.3291C0.843584 11.6456 0.828517 12.2106 1.16752 12.542C1.499 12.8735 2.06401 12.866 2.38041 12.5496L6.99091 7.93154L11.6089 12.5496C11.9329 12.8735 12.4903 12.8735 12.8218 12.542C13.1458 12.203 13.1533 11.6531 12.8218 11.3291L8.21133 6.71112L12.8218 2.10063C13.1533 1.77669 13.1533 1.21921 12.8218 0.887738C12.4828 0.563799 11.9329 0.556265 11.6089 0.880205L6.99091 5.49823L2.38041 0.880205C2.06401 0.563799 1.49146 0.548732 1.16752 0.887738C0.83605 1.21921 0.843584 1.78422 1.15999 2.10063L5.77801 6.71112L1.15999 11.3291Z"/>
</g>
</symbol
</svg>